<?xml version="1.0" encoding="UTF-8" standalone="no"?>
<!DOCTYPE svg PUBLIC "-//W3C//DTD SVG 1.1//EN"
 "http://www.w3.org/Graphics/SVG/1.1/DTD/svg11.dtd">
<!-- Generated by graphviz version 2.38.0 (20140413.2041)
 -->
<!-- Title: PMT Pages: 1 -->
<svg width="1761pt" height="1071pt"
 viewBox="0.00 0.00 1760.89 1071.00" xmlns="http://www.w3.org/2000/svg" xmlns:xlink="http://www.w3.org/1999/xlink">
<g id="graph0" class="graph" transform="scale(1 1) rotate(0) translate(4 1067)">
<title>PMT</title>
<polygon fill="white" stroke="none" points="-4,4 -4,-1067 1756.89,-1067 1756.89,4 -4,4"/>
<!-- yearone -->
<g id="node1" class="node"><title>yearone</title>
<polygon fill="none" stroke="black" points="76.5,-36 6.5,-36 6.5,-0 76.5,-0 76.5,-36"/>
<text text-anchor="middle" x="41.5" y="-14.3" font-family="Times New Roman,serif" font-size="14.00">Year One</text>
</g>
<!-- y1t2 -->
<g id="node2" class="node"><title>y1t2</title>
<polygon fill="none" stroke="black" points="276,-36 222,-36 222,-0 276,-0 276,-36"/>
<text text-anchor="middle" x="249" y="-14.3" font-family="Times New Roman,serif" font-size="14.00">term 2</text>
</g>
<!-- yearone&#45;&gt;y1t2 -->
<g id="edge1" class="edge"><title>yearone&#45;&gt;y1t2</title>
<path fill="none" stroke="black" d="M76.8961,-18C114.286,-18 173.775,-18 211.842,-18"/>
<polygon fill="black" stroke="black" points="211.975,-21.5001 221.975,-18 211.975,-14.5001 211.975,-21.5001"/>
</g>
<!-- yeartwo -->
<g id="node3" class="node"><title>yeartwo</title>
<polygon fill="none" stroke="black" points="487.5,-36 414.5,-36 414.5,-0 487.5,-0 487.5,-36"/>
<text text-anchor="middle" x="451" y="-14.3" font-family="Times New Roman,serif" font-size="14.00">Year Two</text>
</g>
<!-- y1t2&#45;&gt;yeartwo -->
<g id="edge2" class="edge"><title>y1t2&#45;&gt;yeartwo</title>
<path fill="none" stroke="black" d="M276.147,-18C308.611,-18 364.537,-18 404.185,-18"/>
<polygon fill="black" stroke="black" points="404.395,-21.5001 414.395,-18 404.395,-14.5001 404.395,-21.5001"/>
</g>
<!-- y2t2 -->
<g id="node4" class="node"><title>y2t2</title>
<polygon fill="none" stroke="black" points="707,-36 653,-36 653,-0 707,-0 707,-36"/>
<text text-anchor="middle" x="680" y="-14.3" font-family="Times New Roman,serif" font-size="14.00">term 4</text>
</g>
<!-- yeartwo&#45;&gt;y2t2 -->
<g id="edge3" class="edge"><title>yeartwo&#45;&gt;y2t2</title>
<path fill="none" stroke="black" d="M487.718,-18C529.961,-18 599.9,-18 642.486,-18"/>
<polygon fill="black" stroke="black" points="642.69,-21.5001 652.69,-18 642.69,-14.5001 642.69,-21.5001"/>
</g>
<!-- yearthree -->
<g id="node5" class="node"><title>yearthree</title>
<polygon fill="none" stroke="black" points="1093.89,-36 1014.89,-36 1014.89,-0 1093.89,-0 1093.89,-36"/>
<text text-anchor="middle" x="1054.39" y="-14.3" font-family="Times New Roman,serif" font-size="14.00">Year Three</text>
</g>
<!-- y2t2&#45;&gt;yearthree -->
<g id="edge4" class="edge"><title>y2t2&#45;&gt;yearthree</title>
<path fill="none" stroke="black" d="M707.186,-18C768.979,-18 924.662,-18 1004.51,-18"/>
<polygon fill="black" stroke="black" points="1004.79,-21.5001 1014.79,-18 1004.79,-14.5001 1004.79,-21.5001"/>
</g>
<!-- y3t2 -->
<g id="node6" class="node"><title>y3t2</title>
<polygon fill="none" stroke="black" points="1306.89,-36 1252.89,-36 1252.89,-0 1306.89,-0 1306.89,-36"/>
<text text-anchor="middle" x="1279.89" y="-14.3" font-family="Times New Roman,serif" font-size="14.00">term 6</text>
</g>
<!-- yearthree&#45;&gt;y3t2 -->
<g id="edge5" class="edge"><title>yearthree&#45;&gt;y3t2</title>
<path fill="none" stroke="black" d="M1094.07,-18C1135.91,-18 1202.07,-18 1242.85,-18"/>
<polygon fill="black" stroke="black" points="1242.89,-21.5001 1252.89,-18 1242.89,-14.5001 1242.89,-21.5001"/>
</g>
<!-- yearfour -->
<g id="node7" class="node"><title>yearfour</title>
<polygon fill="none" stroke="black" points="1607.89,-36 1533.89,-36 1533.89,-0 1607.89,-0 1607.89,-36"/>
<text text-anchor="middle" x="1570.89" y="-14.3" font-family="Times New Roman,serif" font-size="14.00">Year Four</text>
</g>
<!-- y3t2&#45;&gt;yearfour -->
<g id="edge6" class="edge"><title>y3t2&#45;&gt;yearfour</title>
<path fill="none" stroke="black" d="M1307.05,-18C1356.04,-18 1462.22,-18 1523.57,-18"/>
<polygon fill="black" stroke="black" points="1523.75,-21.5001 1533.75,-18 1523.75,-14.5001 1523.75,-21.5001"/>
</g>
<!-- y4t2 -->
<g id="node8" class="node"><title>y4t2</title>
<polygon fill="none" stroke="black" points="1738.39,-36 1684.39,-36 1684.39,-0 1738.39,-0 1738.39,-36"/>
<text text-anchor="middle" x="1711.39" y="-14.3" font-family="Times New Roman,serif" font-size="14.00">term 8</text>
</g>
<!-- yearfour&#45;&gt;y4t2 -->
<g id="edge7" class="edge"><title>yearfour&#45;&gt;y4t2</title>
<path fill="none" stroke="black" d="M1607.92,-18C1628.26,-18 1653.61,-18 1674.01,-18"/>
<polygon fill="black" stroke="black" points="1674.17,-21.5001 1684.17,-18 1674.17,-14.5001 1674.17,-21.5001"/>
</g>
<!-- PHYS3950 -->
<g id="node9" class="node"><title>PHYS3950</title>
<polygon fill="none" stroke="black" points="1319.89,-118 1239.89,-118 1239.89,-80 1319.89,-80 1319.89,-118"/>
<text text-anchor="start" x="1247.89" y="-102.8" font-family="Times New Roman,serif" font-size="14.00">PHYS3950</text>
<text text-anchor="start" x="1247.89" y="-87.8" font-family="Times New Roman,serif" font-size="14.00">PHYS3951</text>
</g>
<!-- phys1appr -->
<g id="node10" class="node"><title>phys1appr</title>
<ellipse fill="none" stroke="black" cx="1054.39" cy="-126" rx="87.1846" ry="18"/>
<text text-anchor="middle" x="1054.39" y="-122.3" font-family="Times New Roman,serif" font-size="14.00">Committee Approval</text>
</g>
<!-- phys1appr&#45;&gt;PHYS3950 -->
<g id="edge11" class="edge"><title>phys1appr&#45;&gt;PHYS3950</title>
<path fill="none" stroke="black" d="M1130.13,-116.972C1162.93,-113.009 1200.54,-108.466 1229.73,-104.939"/>
<polygon fill="black" stroke="black" points="1230.18,-108.411 1239.68,-103.737 1229.34,-101.461 1230.18,-108.411"/>
</g>
<!-- phys1c9 -->
<g id="node11" class="node"><title>phys1c9</title>
<text text-anchor="middle" x="1054.39" y="-68.3" font-family="Times New Roman,serif" font-size="14.00">9 PHYS credits at the 3000 level</text>
</g>
<!-- phys1c9&#45;&gt;PHYS3950 -->
<g id="edge12" class="edge"><title>phys1c9&#45;&gt;PHYS3950</title>
<path fill="none" stroke="black" d="M1153.1,-83.8033C1179.58,-87.0027 1207.14,-90.3313 1229.68,-93.0548"/>
<polygon fill="black" stroke="black" points="1229.32,-96.5363 1239.67,-94.261 1230.16,-89.5868 1229.32,-96.5363"/>
</g>
<!-- PHYS4900 -->
<g id="node12" class="node"><title>PHYS4900</title>
<polygon fill="none" stroke="black" points="1094.39,-198 1014.39,-198 1014.39,-162 1094.39,-162 1094.39,-198"/>
<text text-anchor="middle" x="1054.39" y="-176.3" font-family="Times New Roman,serif" font-size="14.00">PHYS4900</text>
</g>
<!-- p4900 -->
<g id="node13" class="node"><title>p4900</title>
<text text-anchor="start" x="555" y="-191.3" font-family="Times New Roman,serif" font-size="14.00">45 credits from courses at the undergraduate</text>
<text text-anchor="start" x="571.5" y="-176.3" font-family="Times New Roman,serif" font-size="14.00"> level, including 9 credits from courses</text>
<text text-anchor="start" x="580" y="-161.3" font-family="Times New Roman,serif" font-size="14.00"> in PHYS at the 2000 level or higher</text>
</g>
<!-- p4900&#45;&gt;PHYS4900 -->
<g id="edge10" class="edge"><title>p4900&#45;&gt;PHYS4900</title>
<path fill="none" stroke="black" d="M813.078,-180C879.326,-180 955.584,-180 1004.11,-180"/>
<polygon fill="black" stroke="black" points="1004.33,-183.5 1014.33,-180 1004.33,-176.5 1004.33,-183.5"/>
</g>
<!-- PHYS4700 -->
<g id="node14" class="node"><title>PHYS4700</title>
<polygon fill="none" stroke="black" points="1751.39,-272 1671.39,-272 1671.39,-236 1751.39,-236 1751.39,-272"/>
<text text-anchor="middle" x="1711.39" y="-250.3" font-family="Times New Roman,serif" font-size="14.00">PHYS4700</text>
</g>
<!-- breadthE -->
<g id="node15" class="node"><title>breadthE</title>
<polygon fill="none" stroke="black" points="1629.89,-909 1511.89,-909 1511.89,-873 1629.89,-873 1629.89,-909"/>
<text text-anchor="middle" x="1570.89" y="-887.3" font-family="Times New Roman,serif" font-size="14.00">3 Bredth Electives</text>
</g>
<!-- businessE -->
<g id="node16" class="node"><title>businessE</title>
<polygon fill="none" stroke="black" points="1632.89,-963 1508.89,-963 1508.89,-927 1632.89,-927 1632.89,-963"/>
<text text-anchor="middle" x="1570.89" y="-941.3" font-family="Times New Roman,serif" font-size="14.00">1 Business Elective</text>
</g>
<!-- PHYS4600 -->
<g id="node17" class="node"><title>PHYS4600</title>
<polygon fill="none" stroke="black" points="1751.39,-863 1671.39,-863 1671.39,-827 1751.39,-827 1751.39,-863"/>
<text text-anchor="middle" x="1711.39" y="-841.3" font-family="Times New Roman,serif" font-size="14.00">PHYS4600</text>
</g>
<!-- PHYS4299 -->
<g id="node18" class="node"><title>PHYS4299</title>
<polygon fill="none" stroke="black" points="1751.39,-647 1671.39,-647 1671.39,-611 1751.39,-611 1751.39,-647"/>
<text text-anchor="middle" x="1711.39" y="-625.3" font-family="Times New Roman,serif" font-size="14.00">PHYS4299</text>
</g>
<!-- PHYS4199 -->
<g id="node19" class="node"><title>PHYS4199</title>
<polygon fill="none" stroke="black" points="1610.89,-647 1530.89,-647 1530.89,-611 1610.89,-611 1610.89,-647"/>
<text text-anchor="middle" x="1570.89" y="-625.3" font-family="Times New Roman,serif" font-size="14.00">PHYS4199</text>
</g>
<!-- PHYS4199&#45;&gt;PHYS4299 -->
<g id="edge48" class="edge"><title>PHYS4199&#45;&gt;PHYS4299</title>
<path fill="none" stroke="black" d="M1611.21,-629C1626.56,-629 1644.34,-629 1660.58,-629"/>
<polygon fill="black" stroke="black" points="1660.98,-632.5 1670.98,-629 1660.98,-625.5 1660.98,-632.5"/>
</g>
<!-- PHYS4010 -->
<g id="node20" class="node"><title>PHYS4010</title>
<polygon fill="none" stroke="black" points="1610.89,-272 1530.89,-272 1530.89,-236 1610.89,-236 1610.89,-272"/>
<text text-anchor="middle" x="1570.89" y="-250.3" font-family="Times New Roman,serif" font-size="14.00">PHYS4010</text>
</g>
<!-- PHYS4010&#45;&gt;PHYS4700 -->
<g id="edge9" class="edge"><title>PHYS4010&#45;&gt;PHYS4700</title>
<path fill="none" stroke="black" d="M1611.21,-254C1626.56,-254 1644.34,-254 1660.58,-254"/>
<polygon fill="black" stroke="black" points="1660.98,-257.5 1670.98,-254 1660.98,-250.5 1660.98,-257.5"/>
</g>
<!-- ch4600 -->
<g id="node21" class="node"><title>ch4600</title>
<ellipse fill="none" stroke="black" cx="884.447" cy="-845" rx="34.394" ry="18"/>
<text text-anchor="middle" x="884.447" y="-841.3" font-family="Times New Roman,serif" font-size="14.00">two of</text>
</g>
<!-- ch4600&#45;&gt;PHYS4600 -->
<g id="edge22" class="edge"><title>ch4600&#45;&gt;PHYS4600</title>
<path fill="none" stroke="black" d="M918.905,-845C952.801,-845 1006.74,-845 1053.39,-845 1053.39,-845 1053.39,-845 1571.89,-845 1601.51,-845 1634.68,-845 1661.13,-845"/>
<polygon fill="black" stroke="black" points="1661.29,-848.5 1671.29,-845 1661.29,-841.5 1661.29,-848.5"/>
</g>
<!-- CHEM4610 -->
<g id="node22" class="node"><title>CHEM4610</title>
<polygon fill="none" stroke="black" points="1752.89,-1009 1669.89,-1009 1669.89,-973 1752.89,-973 1752.89,-1009"/>
<text text-anchor="middle" x="1711.39" y="-987.3" font-family="Times New Roman,serif" font-size="14.00">CHEM4610</text>
</g>
<!-- CHEM2315 -->
<g id="node23" class="node"><title>CHEM2315</title>
<polygon fill="none" stroke="black" points="1095.89,-1009 1012.89,-1009 1012.89,-973 1095.89,-973 1095.89,-1009"/>
<text text-anchor="middle" x="1054.39" y="-987.3" font-family="Times New Roman,serif" font-size="14.00">CHEM2315</text>
</g>
<!-- CHEM2315&#45;&gt;CHEM4610 -->
<g id="edge14" class="edge"><title>CHEM2315&#45;&gt;CHEM4610</title>
<path fill="none" stroke="black" d="M1096.18,-991C1140.98,-991 1215.06,-991 1278.89,-991 1278.89,-991 1278.89,-991 1571.89,-991 1600.98,-991 1633.49,-991 1659.71,-991"/>
<polygon fill="black" stroke="black" points="1659.79,-994.5 1669.79,-991 1659.79,-987.5 1659.79,-994.5"/>
</g>
<!-- CHEM1210 -->
<g id="node24" class="node"><title>CHEM1210</title>
<polygon fill="none" stroke="black" points="290.5,-1009 207.5,-1009 207.5,-973 290.5,-973 290.5,-1009"/>
<text text-anchor="middle" x="249" y="-987.3" font-family="Times New Roman,serif" font-size="14.00">CHEM1210</text>
</g>
<!-- CHEM1210&#45;&gt;CHEM2315 -->
<g id="edge13" class="edge"><title>CHEM1210&#45;&gt;CHEM2315</title>
<path fill="none" stroke="black" d="M290.589,-991C304.368,-991 319.854,-991 334,-991 334,-991 334,-991 885.447,-991 924.649,-991 968.998,-991 1002.27,-991"/>
<polygon fill="black" stroke="black" points="1002.67,-994.5 1012.67,-991 1002.67,-987.5 1002.67,-994.5"/>
</g>
<!-- PHYS3900 -->
<g id="node25" class="node"><title>PHYS3900</title>
<polygon fill="none" stroke="black" points="1094.39,-597 1014.39,-597 1014.39,-561 1094.39,-561 1094.39,-597"/>
<text text-anchor="middle" x="1054.39" y="-575.3" font-family="Times New Roman,serif" font-size="14.00">PHYS3900</text>
</g>
<!-- PHYS3900&#45;&gt;PHYS4199 -->
<g id="edge49" class="edge"><title>PHYS3900&#45;&gt;PHYS4199</title>
<path fill="none" stroke="black" d="M1094.56,-579C1139.18,-579 1214.29,-579 1278.89,-579 1278.89,-579 1278.89,-579 1465.89,-579 1492.42,-579 1519.33,-592.375 1539.13,-605.29"/>
<polygon fill="black" stroke="black" points="1537.19,-608.207 1547.42,-610.949 1541.13,-602.423 1537.19,-608.207"/>
</g>
<!-- ch3900 -->
<g id="node26" class="node"><title>ch3900</title>
<text text-anchor="middle" x="1279.89" y="-675.3" font-family="Times New Roman,serif" font-size="14.00">+6 credits PHYS +3000 level</text>
</g>
<!-- ch3900&#45;&gt;PHYS4199 -->
<g id="edge50" class="edge"><title>ch3900&#45;&gt;PHYS4199</title>
<path fill="none" stroke="black" d="M1369.96,-663.59C1419.5,-655.02 1479.28,-644.677 1520.5,-637.546"/>
<polygon fill="black" stroke="black" points="1521.3,-640.959 1530.56,-635.806 1520.11,-634.062 1521.3,-640.959"/>
</g>
<!-- or1c3900 -->
<g id="node27" class="node"><title>or1c3900</title>
<ellipse fill="none" stroke="black" cx="884.447" cy="-720" rx="7" ry="7"/>
</g>
<!-- or1c3900&#45;&gt;PHYS3900 -->
<g id="edge51" class="edge"><title>or1c3900&#45;&gt;PHYS3900</title>
<path fill="none" stroke="black" d="M890.292,-715.932C909.654,-699.677 982.423,-638.584 1023.92,-603.742"/>
<polygon fill="black" stroke="black" points="1026.37,-606.255 1031.78,-597.145 1021.87,-600.894 1026.37,-606.255"/>
</g>
<!-- or2c3900 -->
<g id="node28" class="node"><title>or2c3900</title>
<ellipse fill="none" stroke="black" cx="884.447" cy="-487" rx="7" ry="7"/>
</g>
<!-- or2c3900&#45;&gt;PHYS3900 -->
<g id="edge52" class="edge"><title>or2c3900&#45;&gt;PHYS3900</title>
<path fill="none" stroke="black" d="M891.035,-490.061C909.488,-500.169 969.673,-533.138 1011.34,-555.963"/>
<polygon fill="black" stroke="black" points="1009.74,-559.075 1020.19,-560.81 1013.1,-552.936 1009.74,-559.075"/>
</g>
<!-- PHYS3610 -->
<g id="node29" class="node"><title>PHYS3610</title>
<polygon fill="none" stroke="black" points="1094.39,-802 1014.39,-802 1014.39,-766 1094.39,-766 1094.39,-802"/>
<text text-anchor="middle" x="1054.39" y="-780.3" font-family="Times New Roman,serif" font-size="14.00">PHYS3610</text>
</g>
<!-- PHYS3620 -->
<g id="node30" class="node"><title>PHYS3620</title>
<polygon fill="none" stroke="black" points="1319.89,-802 1239.89,-802 1239.89,-766 1319.89,-766 1319.89,-802"/>
<text text-anchor="middle" x="1279.89" y="-780.3" font-family="Times New Roman,serif" font-size="14.00">PHYS3620</text>
</g>
<!-- PHYS3610&#45;&gt;PHYS3620 -->
<g id="edge27" class="edge"><title>PHYS3610&#45;&gt;PHYS3620</title>
<path fill="none" stroke="black" d="M1094.58,-784C1132.13,-784 1188.92,-784 1229.54,-784"/>
<polygon fill="black" stroke="black" points="1229.75,-787.5 1239.75,-784 1229.75,-780.5 1229.75,-787.5"/>
</g>
<!-- PHYS2010 -->
<g id="node31" class="node"><title>PHYS2010</title>
<polygon fill="none" stroke="black" points="491,-386 411,-386 411,-350 491,-350 491,-386"/>
<text text-anchor="middle" x="451" y="-364.3" font-family="Times New Roman,serif" font-size="14.00">PHYS2010</text>
</g>
<!-- PHYS2010&#45;&gt;PHYS4010 -->
<g id="edge8" class="edge"><title>PHYS2010&#45;&gt;PHYS4010</title>
<path fill="none" stroke="black" d="M469.138,-349.979C486.92,-332.401 516.373,-306.284 547,-292 663.673,-237.584 702.261,-235 831,-235 831,-235 831,-235 1465.89,-235 1484,-235 1503.59,-237.821 1520.84,-241.289"/>
<polygon fill="black" stroke="black" points="1520.18,-244.728 1530.69,-243.389 1521.64,-237.881 1520.18,-244.728"/>
</g>
<!-- PHYS2010&#45;&gt;PHYS3900 -->
<g id="edge53" class="edge"><title>PHYS2010&#45;&gt;PHYS3900</title>
<path fill="none" stroke="black" d="M491.104,-368.29C575.483,-370.603 778.356,-385.388 918.894,-471 958.991,-495.426 1000.42,-530.441 1026.51,-553.914"/>
<polygon fill="black" stroke="black" points="1024.34,-556.671 1034.1,-560.803 1029.05,-551.489 1024.34,-556.671"/>
</g>
<!-- PHYS2030 -->
<g id="node32" class="node"><title>PHYS2030</title>
<polygon fill="none" stroke="black" points="720,-673 640,-673 640,-637 720,-637 720,-673"/>
<text text-anchor="middle" x="680" y="-651.3" font-family="Times New Roman,serif" font-size="14.00">PHYS2030</text>
</g>
<!-- PHYS2030&#45;&gt;PHYS3900 -->
<g id="edge54" class="edge"><title>PHYS2030&#45;&gt;PHYS3900</title>
<path fill="none" stroke="black" d="M720.149,-647.01C788.457,-633.07 929.259,-604.334 1004.1,-589.06"/>
<polygon fill="black" stroke="black" points="1005.11,-592.426 1014.21,-586.997 1003.71,-585.567 1005.11,-592.426"/>
</g>
<!-- PHYS2030&#45;&gt;PHYS3610 -->
<g id="edge26" class="edge"><title>PHYS2030&#45;&gt;PHYS3610</title>
<path fill="none" stroke="black" d="M720.028,-658.998C768.104,-664.828 851.663,-677.934 918.894,-704 955.764,-718.294 994.185,-742.194 1020.48,-760.157"/>
<polygon fill="black" stroke="black" points="1018.69,-763.18 1028.91,-765.998 1022.68,-757.426 1018.69,-763.18"/>
</g>
<!-- ch2030 -->
<g id="node33" class="node"><title>ch2030</title>
<ellipse fill="none" stroke="black" cx="163" cy="-617" rx="7" ry="7"/>
</g>
<!-- ch2030&#45;&gt;PHYS2030 -->
<g id="edge55" class="edge"><title>ch2030&#45;&gt;PHYS2030</title>
<path fill="none" stroke="black" d="M170.113,-617C183.97,-617 218.833,-617 248,-617 248,-617 248,-617 452,-617 514.038,-617 584.32,-630.977 630.029,-641.977"/>
<polygon fill="black" stroke="black" points="629.418,-645.431 639.964,-644.415 631.086,-638.633 629.418,-645.431"/>
</g>
<!-- PHYS2040 -->
<g id="node34" class="node"><title>PHYS2040</title>
<polygon fill="none" stroke="black" points="720,-505 640,-505 640,-469 720,-469 720,-505"/>
<text text-anchor="middle" x="680" y="-483.3" font-family="Times New Roman,serif" font-size="14.00">PHYS2040</text>
</g>
<!-- PHYS2040&#45;&gt;or2c3900 -->
<g id="edge58" class="edge"><title>PHYS2040&#45;&gt;or2c3900</title>
<path fill="none" stroke="black" d="M720.034,-487C764.659,-487 835.613,-487 867.273,-487"/>
<polygon fill="black" stroke="black" points="867.347,-490.5 877.347,-487 867.347,-483.5 867.347,-490.5"/>
</g>
<!-- PHYS2420 -->
<g id="node35" class="node"><title>PHYS2420</title>
<polygon fill="none" stroke="black" points="491,-443 411,-443 411,-407 491,-407 491,-443"/>
<text text-anchor="middle" x="451" y="-421.3" font-family="Times New Roman,serif" font-size="14.00">PHYS2420</text>
</g>
<!-- PHYS2420&#45;&gt;or2c3900 -->
<g id="edge59" class="edge"><title>PHYS2420&#45;&gt;or2c3900</title>
<path fill="none" stroke="black" d="M491.025,-425.363C557.845,-426.739 698.081,-432.932 813,-460 832.717,-464.644 854.322,-473.531 868.337,-479.84"/>
<polygon fill="black" stroke="black" points="867.225,-483.182 877.77,-484.216 870.171,-476.832 867.225,-483.182"/>
<text text-anchor="middle" x="863.77" y="-473.016" font-family="Times New Roman,serif" font-size="14.00">or &#160;&#160;&#160;</text>
</g>
<!-- PHYS3710 -->
<g id="node41" class="node"><title>PHYS3710</title>
<polygon fill="none" stroke="black" points="1319.89,-498 1239.89,-498 1239.89,-462 1319.89,-462 1319.89,-498"/>
<text text-anchor="middle" x="1279.89" y="-476.3" font-family="Times New Roman,serif" font-size="14.00">PHYS3710</text>
</g>
<!-- PHYS2420&#45;&gt;PHYS3710 -->
<g id="edge69" class="edge"><title>PHYS2420&#45;&gt;PHYS3710</title>
<path fill="none" stroke="black" d="M491.256,-418.872C536.424,-412.362 612.877,-403 679,-403 679,-403 679,-403 1055.39,-403 1122.64,-403 1195.36,-434.541 1239,-457.25"/>
<polygon fill="black" stroke="black" points="1237.38,-460.355 1247.86,-461.947 1240.66,-454.17 1237.38,-460.355"/>
</g>
<!-- PHYS3700 -->
<g id="node42" class="node"><title>PHYS3700</title>
<polygon fill="none" stroke="black" points="1319.89,-643 1239.89,-643 1239.89,-607 1319.89,-607 1319.89,-643"/>
<text text-anchor="middle" x="1279.89" y="-621.3" font-family="Times New Roman,serif" font-size="14.00">PHYS3700</text>
</g>
<!-- PHYS2420&#45;&gt;PHYS3700 -->
<g id="edge67" class="edge"><title>PHYS2420&#45;&gt;PHYS3700</title>
<path fill="none" stroke="black" d="M466.458,-443.221C483.553,-463.525 513.893,-495.878 547,-514 777.311,-640.067 1106.14,-635.614 1229.57,-628.673"/>
<polygon fill="black" stroke="black" points="1230.06,-632.15 1239.83,-628.063 1229.64,-625.163 1230.06,-632.15"/>
</g>
<!-- PHYS2100 -->
<g id="node36" class="node"><title>PHYS2100</title>
<polygon fill="none" stroke="black" points="491,-589 411,-589 411,-553 491,-553 491,-589"/>
<text text-anchor="middle" x="451" y="-567.3" font-family="Times New Roman,serif" font-size="14.00">PHYS2100</text>
</g>
<!-- PHYS2100&#45;&gt;ch4600 -->
<g id="edge23" class="edge"><title>PHYS2100&#45;&gt;ch4600</title>
<path fill="none" stroke="black" d="M452.658,-589.037C455.451,-636.316 470.108,-764.164 547,-822 634.896,-888.113 774.964,-869.582 843.305,-855.032"/>
<polygon fill="black" stroke="black" points="844.237,-858.41 853.246,-852.835 842.726,-851.575 844.237,-858.41"/>
</g>
<!-- PHYS2100&#45;&gt;PHYS3900 -->
<g id="edge24" class="edge"><title>PHYS2100&#45;&gt;PHYS3900</title>
<path fill="none" stroke="black" d="M491.459,-571.525C597.362,-572.934 887.685,-576.796 1004.12,-578.345"/>
<polygon fill="black" stroke="black" points="1004.14,-581.845 1014.18,-578.478 1004.23,-574.846 1004.14,-581.845"/>
</g>
<!-- PHYS2610 -->
<g id="node40" class="node"><title>PHYS2610</title>
<polygon fill="none" stroke="black" points="720,-759 640,-759 640,-723 720,-723 720,-759"/>
<text text-anchor="middle" x="680" y="-737.3" font-family="Times New Roman,serif" font-size="14.00">PHYS2610</text>
</g>
<!-- PHYS2100&#45;&gt;PHYS2610 -->
<g id="edge46" class="edge"><title>PHYS2100&#45;&gt;PHYS2610</title>
<path fill="none" stroke="black" d="M463.833,-589.326C480.103,-613.318 511.439,-655.433 547,-682 572.053,-700.717 603.984,-715.189 630.165,-725.116"/>
<polygon fill="black" stroke="black" points="629.298,-728.526 639.891,-728.697 631.716,-721.957 629.298,-728.526"/>
</g>
<!-- PHYS2100&#45;&gt;PHYS3710 -->
<g id="edge66" class="edge"><title>PHYS2100&#45;&gt;PHYS3710</title>
<path fill="none" stroke="black" d="M491.154,-564.468C559.78,-553.603 706.348,-533 831,-533 831,-533 831,-533 1055.39,-533 1116.88,-533 1185.38,-513.774 1230.14,-498.481"/>
<polygon fill="black" stroke="black" points="1231.3,-501.782 1239.59,-495.188 1229,-495.172 1231.3,-501.782"/>
</g>
<!-- ch2100 -->
<g id="node37" class="node"><title>ch2100</title>
<ellipse fill="none" stroke="black" cx="335" cy="-546" rx="7" ry="7"/>
</g>
<!-- ch2100&#45;&gt;PHYS2010 -->
<g id="edge62" class="edge"><title>ch2100&#45;&gt;PHYS2010</title>
<path fill="none" stroke="black" d="M336.826,-539.222C339.918,-516.519 352.717,-442.109 392,-398 395.051,-394.574 398.587,-391.481 402.378,-388.702"/>
<polygon fill="black" stroke="black" points="404.511,-391.491 410.996,-383.112 400.702,-385.618 404.511,-391.491"/>
</g>
<!-- ch2100&#45;&gt;PHYS2040 -->
<g id="edge33" class="edge"><title>ch2100&#45;&gt;PHYS2040</title>
<path fill="none" stroke="black" d="M341.953,-544.976C375.719,-539.168 544.661,-510.108 629.795,-495.464"/>
<polygon fill="black" stroke="black" points="630.486,-498.897 639.748,-493.752 629.299,-491.998 630.486,-498.897"/>
</g>
<!-- ch2100&#45;&gt;PHYS2420 -->
<g id="edge60" class="edge"><title>ch2100&#45;&gt;PHYS2420</title>
<path fill="none" stroke="black" d="M339.215,-540.36C343.512,-533.03 351.57,-519.988 360,-510 378.557,-488.012 402.318,-465.776 420.766,-449.564"/>
<polygon fill="black" stroke="black" points="423.063,-452.204 428.316,-443.003 418.472,-446.921 423.063,-452.204"/>
</g>
<!-- ch2100&#45;&gt;PHYS2100 -->
<g id="edge32" class="edge"><title>ch2100&#45;&gt;PHYS2100</title>
<path fill="none" stroke="black" d="M341.361,-548.978C346.118,-551.492 353.328,-554.994 360,-557 373.033,-560.918 387.474,-563.784 400.905,-565.863"/>
<polygon fill="black" stroke="black" points="400.542,-569.346 410.938,-567.303 401.537,-562.417 400.542,-569.346"/>
</g>
<!-- breadthE2nd -->
<g id="node38" class="node"><title>breadthE2nd</title>
<polygon fill="none" stroke="black" points="510,-1055 392,-1055 392,-1019 510,-1019 510,-1055"/>
<text text-anchor="middle" x="451" y="-1033.3" font-family="Times New Roman,serif" font-size="14.00">1 Breadth Elective</text>
</g>
<!-- PHYS2600 -->
<g id="node39" class="node"><title>PHYS2600</title>
<polygon fill="none" stroke="black" points="720,-813 640,-813 640,-777 720,-777 720,-813"/>
<text text-anchor="middle" x="680" y="-791.3" font-family="Times New Roman,serif" font-size="14.00">PHYS2600</text>
</g>
<!-- PHYS2600&#45;&gt;ch4600 -->
<g id="edge36" class="edge"><title>PHYS2600&#45;&gt;ch4600</title>
<path fill="none" stroke="black" d="M720.034,-804.641C755.381,-813.37 807.246,-826.18 843.019,-835.015"/>
<polygon fill="black" stroke="black" points="842.564,-838.508 853.111,-837.508 844.242,-831.712 842.564,-838.508"/>
</g>
<!-- PHYS2600&#45;&gt;or1c3900 -->
<g id="edge64" class="edge"><title>PHYS2600&#45;&gt;or1c3900</title>
<path fill="none" stroke="black" d="M720.038,-791.129C746.972,-787.482 783.16,-780.614 813,-768 835.151,-758.636 857.566,-741.82 870.984,-730.785"/>
<polygon fill="black" stroke="black" points="873.353,-733.365 878.723,-724.231 868.829,-728.023 873.353,-733.365"/>
</g>
<!-- PHYS2600&#45;&gt;PHYS3610 -->
<g id="edge25" class="edge"><title>PHYS2600&#45;&gt;PHYS3610</title>
<path fill="none" stroke="black" d="M720.149,-793.844C788.457,-791.826 929.259,-787.667 1004.1,-785.456"/>
<polygon fill="black" stroke="black" points="1004.32,-788.951 1014.21,-785.157 1004.11,-781.954 1004.32,-788.951"/>
</g>
<!-- PHYS2610&#45;&gt;ch4600 -->
<g id="edge47" class="edge"><title>PHYS2610&#45;&gt;ch4600</title>
<path fill="none" stroke="black" d="M720.199,-742.658C747.706,-745.287 784.513,-751.848 813,-768 835.012,-780.48 853.973,-802.259 866.661,-819.478"/>
<polygon fill="black" stroke="black" points="864.063,-821.865 872.707,-827.992 869.771,-817.812 864.063,-821.865"/>
</g>
<!-- PHYS2610&#45;&gt;or1c3900 -->
<g id="edge65" class="edge"><title>PHYS2610&#45;&gt;or1c3900</title>
<path fill="none" stroke="black" d="M720.034,-736.951C764.659,-732.322 835.613,-724.962 867.273,-721.678"/>
<polygon fill="black" stroke="black" points="867.761,-725.146 877.347,-720.633 867.039,-718.183 867.761,-725.146"/>
<text text-anchor="middle" x="863.347" y="-709.433" font-family="Times New Roman,serif" font-size="14.00">or &#160;&#160;&#160;</text>
</g>
<!-- PHYS2610&#45;&gt;PHYS3700 -->
<g id="edge68" class="edge"><title>PHYS2610&#45;&gt;PHYS3700</title>
<path fill="none" stroke="black" d="M720.034,-743.493C767.412,-745.759 849.573,-747.243 918.894,-736 1043.37,-715.812 1069.34,-688.97 1189.89,-652 1202.93,-648.001 1217.06,-643.702 1230.13,-639.735"/>
<polygon fill="black" stroke="black" points="1231.33,-643.028 1239.89,-636.778 1229.3,-636.329 1231.33,-643.028"/>
</g>
<!-- PHYS1220 -->
<g id="node43" class="node"><title>PHYS1220</title>
<polygon fill="none" stroke="black" points="289,-737 209,-737 209,-701 289,-701 289,-737"/>
<text text-anchor="middle" x="249" y="-715.3" font-family="Times New Roman,serif" font-size="14.00">PHYS1220</text>
</g>
<!-- PHYS1220&#45;&gt;ch2100 -->
<g id="edge35" class="edge"><title>PHYS1220&#45;&gt;ch2100</title>
<path fill="none" stroke="black" d="M282.794,-700.662C285.848,-698.041 288.667,-695.151 291,-692 320.44,-652.247 329.817,-592.559 332.731,-563.351"/>
<polygon fill="black" stroke="black" points="336.239,-563.407 333.603,-553.145 329.264,-562.811 336.239,-563.407"/>
<text text-anchor="middle" x="323.603" y="-556.945" font-family="Times New Roman,serif" font-size="14.00">or &#160;</text>
</g>
<!-- PHYS1220&#45;&gt;PHYS2600 -->
<g id="edge37" class="edge"><title>PHYS1220&#45;&gt;PHYS2600</title>
<path fill="none" stroke="black" d="M289.208,-725.946C367.62,-739.837 543.605,-771.014 629.688,-786.264"/>
<polygon fill="black" stroke="black" points="629.271,-789.745 639.728,-788.043 630.492,-782.852 629.271,-789.745"/>
</g>
<!-- PHYS1120 -->
<g id="node44" class="node"><title>PHYS1120</title>
<polygon fill="none" stroke="black" points="81.5,-620 1.5,-620 1.5,-584 81.5,-584 81.5,-620"/>
<text text-anchor="middle" x="41.5" y="-598.3" font-family="Times New Roman,serif" font-size="14.00">PHYS1120</text>
</g>
<!-- PHYS1120&#45;&gt;ch2030 -->
<g id="edge56" class="edge"><title>PHYS1120&#45;&gt;ch2030</title>
<path fill="none" stroke="black" d="M81.8861,-601.865C99.2521,-602.473 119.806,-604.108 138,-608 140.918,-608.624 143.955,-609.539 146.847,-610.549"/>
<polygon fill="black" stroke="black" points="145.643,-613.837 156.228,-614.282 148.23,-607.333 145.643,-613.837"/>
</g>
<!-- ch1220 -->
<g id="node47" class="node"><title>ch1220</title>
<ellipse fill="none" stroke="black" cx="163" cy="-675" rx="7" ry="7"/>
</g>
<!-- PHYS1120&#45;&gt;ch1220 -->
<g id="edge39" class="edge"><title>PHYS1120&#45;&gt;ch1220</title>
<path fill="none" stroke="black" d="M66.7953,-620.073C77.1364,-627.489 89.4555,-635.966 101,-643 116.324,-652.336 134.64,-661.722 147.177,-667.891"/>
<polygon fill="black" stroke="black" points="145.96,-671.191 156.486,-672.402 149.013,-664.891 145.96,-671.191"/>
<text text-anchor="middle" x="146.486" y="-676.202" font-family="Times New Roman,serif" font-size="14.00">or &#160;</text>
</g>
<!-- PHYS1101 -->
<g id="node45" class="node"><title>PHYS1101</title>
<polygon fill="none" stroke="black" points="75.5,-692 1.5,-692 1.5,-654 81.5,-654 81.5,-686 75.5,-692"/>
<polyline fill="none" stroke="black" points="75.5,-692 75.5,-686 "/>
<polyline fill="none" stroke="black" points="81.5,-686 75.5,-686 "/>
<text text-anchor="start" x="9.5" y="-676.8" font-family="Times New Roman,serif" font-size="14.00">PHYS1101</text>
<text text-anchor="start" x="14" y="-661.8" font-family="Times New Roman,serif" font-size="14.00">(alternate)</text>
</g>
<!-- PHYS1101&#45;&gt;ch2030 -->
<g id="edge57" class="edge"><title>PHYS1101&#45;&gt;ch2030</title>
<path fill="none" stroke="black" d="M81.6288,-654.664C103.972,-644.193 130.701,-631.667 147.008,-624.025"/>
<polygon fill="black" stroke="black" points="148.881,-627.013 156.451,-619.6 145.911,-620.674 148.881,-627.013"/>
<text text-anchor="middle" x="119.5" y="-648.8" font-family="Times New Roman,serif" font-size="14.00">with B</text>
<text text-anchor="middle" x="144.451" y="-608.4" font-family="Times New Roman,serif" font-size="14.00">or &#160;&#160;</text>
</g>
<!-- PHYS1101&#45;&gt;ch1220 -->
<g id="edge38" class="edge"><title>PHYS1101&#45;&gt;ch1220</title>
<path fill="none" stroke="black" d="M81.6288,-673.655C103.319,-674.018 129.142,-674.45 145.552,-674.725"/>
<polygon fill="black" stroke="black" points="145.587,-678.226 155.644,-674.894 145.704,-671.227 145.587,-678.226"/>
</g>
<!-- PHYS1102 -->
<g id="node46" class="node"><title>PHYS1102</title>
<polygon fill="none" stroke="black" points="283,-683 209,-683 209,-645 289,-645 289,-677 283,-683"/>
<polyline fill="none" stroke="black" points="283,-683 283,-677 "/>
<polyline fill="none" stroke="black" points="289,-677 283,-677 "/>
<text text-anchor="start" x="217" y="-667.8" font-family="Times New Roman,serif" font-size="14.00">PHYS1102</text>
<text text-anchor="start" x="221.5" y="-652.8" font-family="Times New Roman,serif" font-size="14.00">(alternate)</text>
</g>
<!-- PHYS1102&#45;&gt;ch2100 -->
<g id="edge34" class="edge"><title>PHYS1102&#45;&gt;ch2100</title>
<path fill="none" stroke="black" d="M263.683,-644.779C280.699,-620.875 309.324,-580.664 324.262,-559.679"/>
<polygon fill="black" stroke="black" points="327.281,-561.473 330.229,-551.297 321.579,-557.414 327.281,-561.473"/>
</g>
<!-- ch1220&#45;&gt;PHYS1220 -->
<g id="edge41" class="edge"><title>ch1220&#45;&gt;PHYS1220</title>
<path fill="none" stroke="black" d="M169.511,-677.887C176.817,-681.714 190.406,-688.832 204.249,-696.083"/>
<polygon fill="black" stroke="black" points="202.836,-699.294 213.319,-700.834 206.084,-693.093 202.836,-699.294"/>
</g>
<!-- ch1220&#45;&gt;PHYS1102 -->
<g id="edge40" class="edge"><title>ch1220&#45;&gt;PHYS1102</title>
<path fill="none" stroke="black" d="M170.041,-674.209C176.442,-673.371 187.199,-671.962 198.709,-670.455"/>
<polygon fill="black" stroke="black" points="199.467,-673.885 208.928,-669.117 198.558,-666.945 199.467,-673.885"/>
</g>
<!-- PHYS1600 -->
<g id="node48" class="node"><title>PHYS1600</title>
<polygon fill="none" stroke="black" points="81.5,-798 1.5,-798 1.5,-762 81.5,-762 81.5,-798"/>
<text text-anchor="middle" x="41.5" y="-776.3" font-family="Times New Roman,serif" font-size="14.00">PHYS1600</text>
</g>
<!-- ch1299 -->
<g id="node50" class="node"><title>ch1299</title>
<ellipse fill="none" stroke="black" cx="367" cy="-788" rx="7" ry="7"/>
</g>
<!-- PHYS1600&#45;&gt;ch1299 -->
<g id="edge42" class="edge"><title>PHYS1600&#45;&gt;ch1299</title>
<path fill="none" stroke="black" d="M81.5192,-780C104.869,-780 135.133,-780 162,-780 162,-780 162,-780 310,-780 323.557,-780 338.777,-782.326 349.924,-784.47"/>
<polygon fill="black" stroke="black" points="349.322,-787.92 359.826,-786.533 350.75,-781.067 349.322,-787.92"/>
</g>
<!-- APSC1299 -->
<g id="node49" class="node"><title>APSC1299</title>
<polygon fill="none" stroke="black" points="283,-846 209,-846 209,-808 289,-808 289,-840 283,-846"/>
<polyline fill="none" stroke="black" points="283,-846 283,-840 "/>
<polyline fill="none" stroke="black" points="289,-840 283,-840 "/>
<text text-anchor="start" x="217" y="-830.8" font-family="Times New Roman,serif" font-size="14.00">APSC1299</text>
<text text-anchor="start" x="221.5" y="-815.8" font-family="Times New Roman,serif" font-size="14.00">(alternate)</text>
</g>
<!-- APSC1299&#45;&gt;ch1299 -->
<g id="edge43" class="edge"><title>APSC1299&#45;&gt;ch1299</title>
<path fill="none" stroke="black" d="M289.272,-813.796C310.217,-806.755 334.811,-798.486 350.399,-793.245"/>
<polygon fill="black" stroke="black" points="351.614,-796.529 359.977,-790.025 349.383,-789.894 351.614,-796.529"/>
<text text-anchor="middle" x="347.977" y="-778.825" font-family="Times New Roman,serif" font-size="14.00">or &#160;&#160;</text>
</g>
<!-- ch1299&#45;&gt;PHYS2600 -->
<g id="edge44" class="edge"><title>ch1299&#45;&gt;PHYS2600</title>
<path fill="none" stroke="black" d="M374.212,-788.14C406.002,-788.855 551.995,-792.141 629.819,-793.893"/>
<polygon fill="black" stroke="black" points="629.796,-797.393 639.872,-794.119 629.954,-790.395 629.796,-797.393"/>
</g>
<!-- ch1299&#45;&gt;PHYS2610 -->
<g id="edge45" class="edge"><title>ch1299&#45;&gt;PHYS2610</title>
<path fill="none" stroke="black" d="M374.212,-787.061C406.002,-782.257 551.995,-760.194 629.819,-748.433"/>
<polygon fill="black" stroke="black" points="630.508,-751.868 639.872,-746.913 629.462,-744.947 630.508,-751.868"/>
</g>
<!-- MATH1220 -->
<g id="node51" class="node"><title>MATH1220</title>
<polygon fill="none" stroke="black" points="291,-444 207,-444 207,-408 291,-408 291,-444"/>
<text text-anchor="middle" x="249" y="-422.3" font-family="Times New Roman,serif" font-size="14.00">MATH1220</text>
</g>
<!-- chm2100 -->
<g id="node60" class="node"><title>chm2100</title>
<ellipse fill="none" stroke="black" cx="335" cy="-453" rx="7" ry="7"/>
</g>
<!-- MATH1220&#45;&gt;chm2100 -->
<g id="edge30" class="edge"><title>MATH1220&#45;&gt;chm2100</title>
<path fill="none" stroke="black" d="M291.016,-439.184C300.753,-442.314 310.561,-445.466 318.345,-447.968"/>
<polygon fill="black" stroke="black" points="317.464,-451.361 328.056,-451.089 319.606,-444.697 317.464,-451.361"/>
<text text-anchor="middle" x="314.056" y="-439.889" font-family="Times New Roman,serif" font-size="14.00">or &#160;&#160;&#160;</text>
</g>
<!-- MATH1230 -->
<g id="node52" class="node"><title>MATH1230</title>
<polygon fill="none" stroke="black" points="291,-498 207,-498 207,-462 291,-462 291,-498"/>
<text text-anchor="middle" x="249" y="-476.3" font-family="Times New Roman,serif" font-size="14.00">MATH1230</text>
</g>
<!-- MATH1230&#45;&gt;chm2100 -->
<g id="edge31" class="edge"><title>MATH1230&#45;&gt;chm2100</title>
<path fill="none" stroke="black" d="M291.016,-466.816C300.753,-463.686 310.561,-460.534 318.345,-458.032"/>
<polygon fill="black" stroke="black" points="319.606,-461.303 328.056,-454.911 317.464,-454.639 319.606,-461.303"/>
</g>
<!-- MATH2721 -->
<g id="node53" class="node"><title>MATH2721</title>
<polygon fill="none" stroke="black" points="493,-291 409,-291 409,-255 493,-255 493,-291"/>
<text text-anchor="middle" x="451" y="-269.3" font-family="Times New Roman,serif" font-size="14.00">MATH2721</text>
</g>
<!-- both4010 -->
<g id="node58" class="node"><title>both4010</title>
<ellipse fill="none" stroke="black" cx="884.447" cy="-273" rx="7" ry="7"/>
</g>
<!-- MATH2721&#45;&gt;both4010 -->
<g id="edge17" class="edge"><title>MATH2721&#45;&gt;both4010</title>
<path fill="none" stroke="black" d="M493.369,-273C585.709,-273 805.354,-273 867.067,-273"/>
<polygon fill="black" stroke="black" points="867.219,-276.5 877.219,-273 867.219,-269.5 867.219,-276.5"/>
<text text-anchor="middle" x="857.219" y="-261.8" font-family="Times New Roman,serif" font-size="14.00">and &#160;&#160;&#160;&#160;</text>
</g>
<!-- MATH2821 -->
<g id="node54" class="node"><title>MATH2821</title>
<polygon fill="none" stroke="black" points="722,-337 638,-337 638,-301 722,-301 722,-337"/>
<text text-anchor="middle" x="680" y="-315.3" font-family="Times New Roman,serif" font-size="14.00">MATH2821</text>
</g>
<!-- MATH2821&#45;&gt;both4010 -->
<g id="edge18" class="edge"><title>MATH2821&#45;&gt;both4010</title>
<path fill="none" stroke="black" d="M722.159,-310.935C752.6,-304.811 795.014,-295.944 832,-287 844.028,-284.091 857.524,-280.403 867.674,-277.542"/>
<polygon fill="black" stroke="black" points="868.801,-280.86 877.456,-274.749 866.879,-274.129 868.801,-280.86"/>
</g>
<!-- MATH3120 -->
<g id="node55" class="node"><title>MATH3120</title>
<polygon fill="none" stroke="black" points="1321.89,-391 1237.89,-391 1237.89,-355 1321.89,-355 1321.89,-391"/>
<text text-anchor="middle" x="1279.89" y="-369.3" font-family="Times New Roman,serif" font-size="14.00">MATH3120</text>
</g>
<!-- oboth4010 -->
<g id="node59" class="node"><title>oboth4010</title>
<ellipse fill="none" stroke="black" cx="1413.89" cy="-319" rx="7" ry="7"/>
</g>
<!-- MATH3120&#45;&gt;oboth4010 -->
<g id="edge19" class="edge"><title>MATH3120&#45;&gt;oboth4010</title>
<path fill="none" stroke="black" d="M1322.05,-362.986C1337.4,-358.615 1354.76,-352.897 1369.89,-346 1380.39,-341.218 1391.38,-334.273 1399.63,-328.625"/>
<polygon fill="black" stroke="black" points="1401.72,-331.435 1407.85,-322.796 1397.67,-325.724 1401.72,-331.435"/>
</g>
<!-- MATH3322 -->
<g id="node56" class="node"><title>MATH3322</title>
<polygon fill="none" stroke="black" points="1321.89,-337 1237.89,-337 1237.89,-301 1321.89,-301 1321.89,-337"/>
<text text-anchor="middle" x="1279.89" y="-315.3" font-family="Times New Roman,serif" font-size="14.00">MATH3322</text>
</g>
<!-- MATH3322&#45;&gt;oboth4010 -->
<g id="edge20" class="edge"><title>MATH3322&#45;&gt;oboth4010</title>
<path fill="none" stroke="black" d="M1321.94,-319C1347.02,-319 1377.74,-319 1396.29,-319"/>
<polygon fill="black" stroke="black" points="1396.54,-322.5 1406.54,-319 1396.54,-315.5 1396.54,-322.5"/>
<text text-anchor="middle" x="1392.54" y="-307.8" font-family="Times New Roman,serif" font-size="14.00">and &#160;</text>
</g>
<!-- ch4010 -->
<g id="node57" class="node"><title>ch4010</title>
<ellipse fill="none" stroke="black" cx="1464.89" cy="-273" rx="7" ry="7"/>
</g>
<!-- ch4010&#45;&gt;PHYS4010 -->
<g id="edge15" class="edge"><title>ch4010&#45;&gt;PHYS4010</title>
<path fill="none" stroke="black" d="M1472.09,-271.868C1481.81,-270.093 1501.52,-266.492 1520.72,-262.984"/>
<polygon fill="black" stroke="black" points="1521.44,-266.409 1530.65,-261.169 1520.19,-259.523 1521.44,-266.409"/>
</g>
<!-- both4010&#45;&gt;ch4010 -->
<g id="edge16" class="edge"><title>both4010&#45;&gt;ch4010</title>
<path fill="none" stroke="black" d="M891.547,-273C913.442,-273 990.122,-273 1053.39,-273 1053.39,-273 1053.39,-273 1414.89,-273 1425.78,-273 1438.03,-273 1447.55,-273"/>
<polygon fill="black" stroke="black" points="1447.86,-276.5 1457.86,-273 1447.86,-269.5 1447.86,-276.5"/>
<text text-anchor="middle" x="1443.86" y="-261.8" font-family="Times New Roman,serif" font-size="14.00">or &#160;&#160;&#160;</text>
</g>
<!-- oboth4010&#45;&gt;ch4010 -->
<g id="edge21" class="edge"><title>oboth4010&#45;&gt;ch4010</title>
<path fill="none" stroke="black" d="M1419.77,-314.421C1427.18,-307.462 1441.52,-294.008 1451.84,-284.319"/>
<polygon fill="black" stroke="black" points="1454.43,-286.688 1459.32,-277.291 1449.64,-281.584 1454.43,-286.688"/>
</g>
<!-- chm2100&#45;&gt;PHYS2010 -->
<g id="edge63" class="edge"><title>chm2100&#45;&gt;PHYS2010</title>
<path fill="none" stroke="black" d="M336.448,-446.11C337.703,-432.764 342.423,-403.351 360,-388 371.265,-378.162 386.296,-372.842 400.844,-370.051"/>
<polygon fill="black" stroke="black" points="401.445,-373.5 410.786,-368.499 400.365,-366.583 401.445,-373.5"/>
</g>
<!-- chm2100&#45;&gt;PHYS2040 -->
<g id="edge29" class="edge"><title>chm2100&#45;&gt;PHYS2040</title>
<path fill="none" stroke="black" d="M342.298,-454.176C347.128,-455.047 353.968,-456.215 360,-457 455.099,-469.381 566.786,-478.692 629.588,-483.453"/>
<polygon fill="black" stroke="black" points="629.377,-486.947 639.611,-484.205 629.901,-479.966 629.377,-486.947"/>
</g>
<!-- chm2100&#45;&gt;PHYS2420 -->
<g id="edge61" class="edge"><title>chm2100&#45;&gt;PHYS2420</title>
<path fill="none" stroke="black" d="M342.129,-451.495C353.288,-448.754 377.888,-442.712 400.781,-437.089"/>
<polygon fill="black" stroke="black" points="401.906,-440.417 410.783,-434.632 400.236,-433.619 401.906,-440.417"/>
</g>
<!-- chm2100&#45;&gt;PHYS2100 -->
<g id="edge28" class="edge"><title>chm2100&#45;&gt;PHYS2100</title>
<path fill="none" stroke="black" d="M339.813,-458.651C344.34,-465.219 352.256,-476.274 360,-485 379.329,-506.782 403.246,-529.461 421.565,-546.057"/>
<polygon fill="black" stroke="black" points="419.266,-548.697 429.043,-552.777 423.944,-543.49 419.266,-548.697"/>
</g>
<!-- BIOL1110 -->
<g id="node61" class="node"><title>BIOL1110</title>
<polygon fill="none" stroke="black" points="287,-1063 211,-1063 211,-1027 287,-1027 287,-1063"/>
<text text-anchor="middle" x="249" y="-1041.3" font-family="Times New Roman,serif" font-size="14.00">BIOL1110</text>
</g>
<!-- CHEM1110 -->
<g id="node62" class="node"><title>CHEM1110</title>
<polygon fill="none" stroke="black" points="83,-1009 0,-1009 0,-973 83,-973 83,-1009"/>
<text text-anchor="middle" x="41.5" y="-987.3" font-family="Times New Roman,serif" font-size="14.00">CHEM1110</text>
</g>
<!-- CHEM1110&#45;&gt;CHEM1210 -->
<g id="edge70" class="edge"><title>CHEM1110&#45;&gt;CHEM1210</title>
<path fill="none" stroke="black" d="M83.1002,-991C115.89,-991 162.207,-991 197.408,-991"/>
<polygon fill="black" stroke="black" points="197.484,-994.5 207.484,-991 197.484,-987.5 197.484,-994.5"/>
</g>
<!-- ENGL1100 -->
<g id="node63" class="node"><title>ENGL1100</title>
<polygon fill="none" stroke="black" points="81.5,-1063 1.5,-1063 1.5,-1027 81.5,-1027 81.5,-1063"/>
<text text-anchor="middle" x="41.5" y="-1041.3" font-family="Times New Roman,serif" font-size="14.00">ENGL1100</text>
</g>
</g>
</svg>
